<svg xmlns="http://www.w3.org/2000/svg" width="512" height="512" viewBox="0 0 512 512" version="1.1">
	<path d="M 240.500 18.037 C 193.883 20.886, 144.472 40.806, 103.957 73.083 C 57.186 110.344, 28.110 165.439, 21.901 228.565 C 20.521 242.593, 21.252 267.365, 23.434 280.503 C 28.061 308.371, 39.306 337.098, 54.556 360.009 C 70.911 384.580, 88.874 402.044, 108.401 412.356 C 115.459 416.083, 119.237 416.974, 118.552 414.750 C 118.340 414.063, 117.890 412.239, 117.551 410.698 C 116.969 408.046, 117.059 407.958, 119.218 409.068 C 120.473 409.712, 122.988 411.648, 124.807 413.370 L 128.114 416.500 142.807 416.555 C 155.627 416.602, 158.231 416.897, 163.231 418.869 C 169.023 421.154, 172.635 424.022, 167.906 422.582 C 154.637 418.542, 143.659 418.081, 129.902 420.984 C 124.731 422.076, 119.473 422.976, 118.218 422.984 C 116.963 422.993, 114.307 423.681, 112.316 424.513 L 108.696 426.025 112.598 429.505 C 117.641 434.003, 128.791 439.551, 136.854 441.574 C 145.414 443.723, 153.472 442.302, 165.813 436.469 C 175.112 432.074, 175.133 432.069, 179.063 433.642 C 181.228 434.508, 183 435.618, 183 436.109 C 183 436.599, 180.412 437.010, 177.250 437.022 C 173.574 437.036, 169.877 437.794, 167 439.125 C 159.517 442.585, 152.467 444.798, 146.583 445.533 C 143.512 445.917, 141 446.567, 141 446.979 C 141 448.002, 148.880 449.001, 156.890 448.994 C 165.170 448.987, 170.204 447.642, 176.212 443.830 C 183.111 439.453, 195.957 437.370, 205.744 439.043 C 215.663 440.738, 216.968 442.560, 208.758 443.253 C 192.277 444.645, 178.387 455.232, 171.354 471.762 C 169.889 475.206, 168.899 478.232, 169.155 478.488 C 169.410 478.743, 171.913 478.081, 174.716 477.016 C 177.519 475.951, 183.792 474.587, 188.656 473.986 C 200.741 472.491, 205.012 471.302, 209.887 468.075 C 214.665 464.912, 219 459.498, 219 456.694 C 219 455.027, 219.479 454.867, 222.688 455.469 C 227.299 456.334, 236.466 460.890, 245.173 466.643 C 252.854 471.717, 254.846 475.057, 257.469 487.250 L 259.136 495 263.068 495 C 267.637 495, 267.735 494.626, 265.469 485.880 C 262.872 475.857, 263.150 473.078, 267.081 469.761 C 271.312 466.193, 289.253 456, 291.304 456 C 292.132 456, 294.201 458.467, 295.903 461.482 C 299.694 468.199, 305.431 471.474, 316.209 473.076 C 322.342 473.987, 334.281 476.679, 341.295 478.731 C 342.984 479.226, 342.973 478.950, 341.097 474.013 C 334.804 457.452, 321.657 445.311, 308 443.447 C 297.819 442.058, 299.612 440.111, 311.841 439.275 C 321.334 438.626, 329.383 440.223, 335.193 443.907 C 337.636 445.457, 341.405 447.322, 343.567 448.052 C 348.623 449.759, 363.331 449.717, 368.500 447.981 L 372.500 446.638 364.462 445.471 C 359.381 444.733, 353.447 442.959, 348.336 440.652 C 342.043 437.810, 338.945 436.993, 334.374 436.967 L 328.500 436.935 333.300 434.818 L 338.099 432.702 348.300 437.601 C 357.740 442.135, 359.059 442.499, 366 442.483 C 375.660 442.462, 383.204 439.998, 392.907 433.696 C 397.083 430.983, 400.698 428.581, 400.940 428.358 C 402.160 427.235, 397.540 424.926, 389 422.388 C 376.658 418.721, 360.312 418.483, 350.043 421.821 C 346.492 422.975, 343.386 423.719, 343.141 423.474 C 342.131 422.465, 353.991 418.024, 360.417 417.005 C 365.552 416.191, 369.208 416.211, 374.611 417.082 L 381.888 418.256 385.694 415.281 C 387.787 413.644, 390.811 411.462, 392.413 410.431 L 395.327 408.556 394.651 412.778 C 394.280 415.100, 394.319 416.998, 394.738 416.995 C 396.098 416.986, 409.067 410.050, 413.757 406.823 C 421.441 401.537, 439.844 383.034, 447.414 372.985 C 477.816 332.626, 493.002 282.656, 489.175 235.574 C 487.704 217.483, 484.084 197.696, 479.437 182.351 C 459.987 118.125, 420.303 72.266, 357.500 41.443 C 336.195 30.987, 316.229 24.477, 293.500 20.576 C 285.081 19.131, 258.953 16.842, 254.500 17.160 C 253.400 17.239, 247.100 17.633, 240.500 18.037 M 240 37.611 C 220.311 39.402, 187 47.246, 187 50.091 C 187 50.541, 188.688 51.194, 190.750 51.542 C 201.324 53.326, 199.920 54.453, 183.940 57.013 C 163.576 60.274, 145.408 67.673, 126.012 80.602 C 97.390 99.682, 76.046 123.848, 60.745 154.500 C 32.464 211.152, 31.002 271.849, 56.531 329.500 C 63.281 344.743, 79.556 373.777, 80.706 372.628 C 80.975 372.358, 80.158 369.519, 78.889 366.319 C 76.944 361.411, 76.577 358.621, 76.544 348.500 C 76.511 338.574, 76.831 335.899, 78.394 333.025 L 80.284 329.549 81.670 335.025 C 84.316 345.480, 91.888 353.606, 107.034 362.245 C 121.008 370.215, 127.369 384.854, 123.896 401.047 C 122.379 408.121, 123.339 408.892, 130.737 406.546 C 144.083 402.313, 158.214 403.848, 167.649 410.556 C 173.276 414.556, 178 421.212, 178 425.138 C 178 427.341, 178.838 428.488, 181.750 430.273 C 188.392 434.343, 190.930 435, 200.014 435 L 208.933 435 204.301 428.250 C 201.753 424.537, 199.340 421.119, 198.938 420.654 C 198.536 420.188, 194.977 419.192, 191.030 418.440 C 187.082 417.687, 182.375 416.159, 180.570 415.043 C 175.984 412.209, 168.595 404.088, 166.033 399.064 C 163.590 394.277, 153.798 364.868, 154.435 364.232 C 154.664 364.003, 156.347 365.146, 158.175 366.771 C 160.004 368.396, 164.425 372.165, 168 375.146 C 174.609 380.656, 178.714 386.186, 187.296 401.142 C 191.685 408.792, 197.682 416.687, 198.463 415.845 C 198.639 415.655, 194.844 408.760, 190.030 400.522 C 179.999 383.361, 173.063 375.192, 161.855 367.338 C 153.500 361.483, 152.547 360.541, 153.471 359.047 C 154.357 357.614, 178.702 366.529, 184.622 370.454 C 197.267 378.839, 204.858 395.109, 202.108 407.934 C 201.498 410.775, 201 414.153, 201 415.441 C 201 418.118, 218.377 438.496, 229.618 449 C 235.350 454.357, 252.348 466, 254.435 466 C 254.746 466, 255 462.924, 255 459.164 L 255 452.328 248.754 450.591 C 235.604 446.935, 226.171 439.837, 221.884 430.371 C 218.998 423.999, 217.725 412.479, 219.016 404.402 C 220.850 392.920, 226.801 384.654, 236.946 379.498 L 240.391 377.746 236.710 374.373 C 232.839 370.825, 231 370.150, 231 372.275 C 231 372.977, 229.664 376.239, 228.031 379.525 C 226.399 382.811, 225.049 386.118, 225.031 386.872 C 225.005 388.036, 224.747 388.036, 223.342 386.872 C 217.972 382.429, 216.289 368.004, 220.001 358.239 C 221.100 355.346, 222 351.660, 222 350.048 C 222 345.603, 223.514 345.596, 225.515 350.034 C 226.502 352.222, 229.326 355.665, 231.790 357.684 C 234.509 359.912, 237.177 363.349, 238.577 366.428 L 240.885 371.500 240.942 365.899 C 241.009 359.380, 242.627 354, 244.520 354 C 247.733 354, 248.848 366.501, 246.386 374.919 C 245.806 376.900, 245.976 377.223, 247.325 376.706 C 250.525 375.478, 266.564 374.870, 271.250 375.800 L 276 376.742 276 372.567 C 276 369.617, 276.908 366.959, 279.095 363.512 C 280.797 360.828, 282.623 357.492, 283.152 356.100 C 284.445 352.699, 285.699 354.746, 286.564 361.669 C 287.107 366.009, 286.785 367.790, 284.595 372.573 L 281.978 378.289 287.931 383.676 C 291.699 387.086, 294.914 391.161, 296.692 394.781 C 299.231 399.952, 299.499 401.507, 299.491 411 C 299.483 420.291, 299.173 422.163, 296.795 427.253 C 291.271 439.080, 282.017 446.855, 269 450.607 L 261.500 452.769 261.198 459.033 C 261.033 462.478, 261.280 465.680, 261.749 466.149 C 263.032 467.432, 281.616 454.775, 288.832 447.705 C 292.315 444.292, 299.045 436.775, 303.789 431 C 308.533 425.225, 315.178 417.442, 318.557 413.704 C 322.606 409.224, 326.858 402.801, 331.035 394.855 C 334.578 388.115, 339.170 380.973, 341.455 378.651 C 346.904 373.113, 362 361.587, 362 362.965 C 362 363.565, 360.648 366.735, 358.996 370.009 C 357.343 373.282, 355.099 379.787, 354.008 384.464 C 352.918 389.141, 351.064 395.013, 349.889 397.514 C 345.099 407.704, 334.827 415.686, 321.675 419.438 C 317.011 420.768, 315.516 421.721, 314.175 424.215 C 313.254 425.928, 310.946 429.100, 309.046 431.262 L 305.592 435.194 316.214 434.847 C 326.160 434.522, 327.110 434.307, 331.157 431.460 C 334.486 429.118, 335.612 427.603, 336.057 424.865 C 338.563 409.445, 362.221 399.977, 380.843 406.941 C 386.269 408.971, 387.329 409.099, 388.550 407.878 C 389.696 406.733, 389.751 405.702, 388.841 402.481 C 388.222 400.291, 387.706 395.350, 387.695 391.500 C 387.662 380, 393.024 370.734, 404.552 362.371 C 422.101 349.640, 427.638 343.403, 430.087 333.607 L 431.310 328.713 433.405 332.607 C 435.185 335.914, 435.500 338.230, 435.499 348 C 435.498 358.468, 435.250 360.030, 432.735 365.402 C 431.215 368.649, 430.157 371.491, 430.385 371.718 C 432.218 373.551, 452.968 334.290, 459.440 316.741 C 470.440 286.918, 474.232 256.328, 470.571 226.962 C 462.514 162.334, 432.454 110.560, 384.141 78.099 C 355.003 58.522, 319.497 44.372, 287.182 39.459 C 277.469 37.982, 248.425 36.844, 240 37.611 M 162.379 78.450 C 159.563 79.728, 156.986 81.213, 156.654 81.751 C 156.286 82.347, 159.854 83.006, 165.775 83.436 C 178.528 84.363, 184.400 85.679, 186.592 88.102 C 188.284 89.972, 188.290 90.240, 186.692 92.945 C 184.084 97.360, 184.572 98.904, 189.250 101.027 C 193.710 103.052, 204.638 103.625, 208.500 102.037 C 210.345 101.278, 210.363 101.159, 208.738 100.496 C 207.768 100.100, 204.994 100.074, 202.572 100.437 C 199.592 100.884, 197.010 100.613, 194.584 99.600 C 189.816 97.607, 189.785 94.422, 194.500 91 C 198.660 87.981, 198.762 87.059, 195.381 83.041 C 191.466 78.389, 188.493 77.335, 177.500 76.703 C 168.464 76.183, 167.006 76.352, 162.379 78.450 M 327.256 102.975 C 323.368 103.898, 321 105.701, 321 107.740 C 321 108.983, 322.220 109.136, 328.250 108.644 C 332.238 108.319, 341.203 107.764, 348.174 107.411 C 358.200 106.902, 360.740 106.487, 360.332 105.422 C 359.491 103.230, 356.667 102.878, 349.208 104.036 C 343.401 104.937, 341.248 104.854, 336.903 103.564 C 334.007 102.704, 331.381 102.046, 331.068 102.102 C 330.756 102.159, 329.040 102.551, 327.256 102.975 M 294 112.087 C 276.714 115.014, 215.625 126.708, 202.796 129.545 C 196.603 130.915, 190.892 132.680, 190.104 133.467 C 189.317 134.254, 188.465 137.402, 188.212 140.462 C 187.824 145.141, 187.413 146.093, 185.625 146.455 C 184.456 146.692, 175.175 148.683, 165 150.879 L 146.500 154.872 137.952 163.686 C 130.541 171.328, 105.678 203.071, 104.308 206.639 C 103.957 207.554, 105.561 207.982, 110.162 208.200 L 116.500 208.500 116.763 242.250 L 117.027 276 112.468 276 L 107.909 276 108.204 282.750 C 108.473 288.883, 108.706 289.529, 110.750 289.820 C 112.853 290.118, 113 290.625, 113 297.570 C 113 302.847, 112.638 305, 111.750 305.001 C 111.063 305.001, 107.722 306.316, 104.328 307.922 C 98.022 310.905, 96.794 312.294, 93.858 319.764 C 92.262 323.827, 92.269 324.074, 94.020 325.010 C 95.574 325.843, 95.770 326.828, 95.295 331.432 C 94.815 336.083, 95.109 337.510, 97.329 341.298 C 102.913 350.827, 111.218 355.019, 124.432 354.978 C 135.748 354.943, 141.040 351.613, 147.616 340.392 C 150.181 336.015, 150.469 332.175, 148.561 327.792 C 147.995 326.490, 148.434 325.929, 150.409 325.433 C 151.834 325.076, 154.125 325.066, 155.500 325.411 C 157.791 325.986, 158 326.502, 158 331.583 C 158 337.530, 158.176 337.823, 167.537 347.420 C 173.996 354.041, 187.464 356.943, 198.065 353.998 C 203.055 352.612, 209.049 347.163, 212.441 340.930 C 215.132 335.987, 215.242 335.353, 214.127 331.187 C 213.472 328.736, 213.213 326.454, 213.552 326.115 C 214.652 325.016, 227.436 325.596, 229.750 326.851 C 232.993 328.609, 232.695 331.787, 229.250 332.184 C 227.103 332.431, 226.432 333.093, 226.188 335.203 C 225.879 337.880, 225.940 337.909, 232.653 338.203 C 239.865 338.519, 239.783 338.461, 244.534 346.511 C 245.386 347.954, 247.016 348.263, 253.773 348.263 C 262.805 348.263, 263.855 347.774, 267.619 341.811 C 269.910 338.183, 270.132 338.085, 276.733 337.796 C 283.205 337.513, 283.500 337.391, 283.500 335 C 283.500 333.016, 282.932 332.435, 280.750 332.184 C 277.318 331.789, 277.037 328.788, 280.223 326.557 C 282.923 324.665, 290.960 324.438, 291.089 326.250 C 291.138 326.938, 291.110 329.534, 291.027 332.019 C 290.894 336.015, 291.466 337.317, 295.972 343.269 C 303.236 352.866, 308.488 355.481, 320.500 355.484 C 327.797 355.485, 330.257 355.080, 333.500 353.340 C 338.176 350.832, 341.087 347.841, 343.507 343.060 C 344.465 341.168, 346.166 338.877, 347.288 337.968 C 349.136 336.471, 349.232 335.832, 348.304 331.142 C 347.330 326.215, 347.388 325.941, 349.520 325.406 C 350.751 325.097, 353.050 324.991, 354.629 325.172 C 357.402 325.489, 357.517 325.723, 358 332 C 358.377 336.907, 359.059 339.113, 360.781 341 C 362.036 342.375, 364.644 345.377, 366.577 347.671 C 371.011 352.935, 376.762 355.003, 386.928 354.990 C 392.778 354.983, 395.656 354.442, 399.581 352.614 C 409.788 347.862, 416.210 338.021, 414.090 330.385 C 412.655 325.216, 412.689 325, 414.941 325 C 418.101 325, 418.277 323.285, 415.696 317.646 C 413.116 312.012, 409.960 309.197, 402.544 305.916 L 398 303.906 398 297.363 C 398 292.026, 398.370 290.515, 400.011 289.160 C 401.797 287.686, 401.937 286.828, 401.259 281.500 L 400.495 275.500 385.998 275 L 371.500 274.500 371.237 240.750 L 370.973 207 377.046 207 L 383.119 207 377.548 196.750 C 374.483 191.113, 369.190 181.160, 365.785 174.632 C 362.380 168.105, 357.711 160.680, 355.409 158.132 C 353.108 155.585, 346.210 150.402, 340.080 146.616 C 333.951 142.829, 329.092 139.575, 329.283 139.383 C 329.475 139.192, 332.750 139.928, 336.562 141.018 C 345.047 143.444, 344.713 143.454, 342.405 140.852 C 340.123 138.280, 329.259 133.165, 319.182 129.920 C 312.668 127.822, 311.958 127.348, 312.606 125.534 C 313.006 124.415, 313.370 120.575, 313.416 117 L 313.500 110.500 309.500 110.320 C 307.300 110.221, 300.325 111.016, 294 112.087 M 305.543 120.931 C 305.226 121.443, 305.425 122.144, 305.984 122.490 C 307.177 123.227, 309 122.291, 309 120.941 C 309 119.724, 306.293 119.716, 305.543 120.931 M 293.199 121.986 C 287.983 123.222, 288.228 124, 293.833 124 C 297.759 124, 299 123.640, 299 122.500 C 299 120.870, 298.209 120.800, 293.199 121.986 M 400.901 129.855 C 399.936 132.623, 399.645 132.728, 391.326 133.315 C 383.179 133.890, 381.058 134.391, 382.149 135.482 C 382.414 135.747, 391.152 136.208, 401.566 136.505 C 420.604 137.049, 422.770 136.463, 410.750 134.024 C 405.325 132.922, 405 132.691, 405 129.928 C 405 126.059, 402.241 126.010, 400.901 129.855 M 224.500 136.421 C 194.487 143.194, 195.316 142.966, 203 142.319 C 206.575 142.017, 218.046 140.360, 228.492 138.635 C 244.294 136.027, 247.539 135.206, 247.815 133.750 C 248.286 131.265, 246.384 131.483, 224.500 136.421 M 286 145.882 C 258.689 157.742, 249.161 164.982, 235.839 184 C 233.334 187.575, 230.096 192.565, 228.642 195.088 L 226 199.676 226 237.338 L 226 275 251 275 L 276 275 276 266.387 L 276 257.773 259.250 258.026 C 250.037 258.165, 241.938 258.216, 241.250 258.140 C 240.285 258.032, 240 251.890, 240 231.153 L 240 204.306 260.522 203.607 C 271.808 203.223, 281.483 203.181, 282.022 203.513 C 282.633 203.891, 283.005 219.024, 283.014 243.809 C 283.021 265.639, 283.305 284.536, 283.644 285.803 C 284.165 287.749, 284.820 288.058, 287.880 287.803 C 291.379 287.510, 291.510 287.356, 291.811 283.176 C 292.167 278.227, 290.791 276, 287.378 276 L 285 276 285 240.475 L 285 204.950 287.565 203.975 C 290.540 202.844, 352.980 202.648, 354.500 203.765 C 355.120 204.220, 355.571 215.627, 355.687 233.744 C 355.790 249.828, 356.135 263.409, 356.453 263.924 C 357.692 265.929, 354.165 266.199, 335.914 265.497 L 317 264.769 316.985 255.134 C 316.976 249.399, 316.460 244.488, 315.709 243 C 314.569 240.739, 313.775 240.472, 307.410 240.210 C 301.488 239.966, 299.946 240.255, 297.686 242.033 C 295.070 244.090, 295 244.423, 295 254.873 C 295 261.883, 295.416 266.016, 296.200 266.800 C 297.080 267.680, 305.356 268, 327.200 268 C 346.885 268, 357 268.348, 357 269.025 C 357 269.589, 355.650 270.320, 354 270.650 C 348.005 271.849, 352.403 275.305, 359.288 274.806 L 363.500 274.500 363.384 237.981 L 363.268 201.462 360.509 195.981 C 351.491 178.060, 341.746 166.189, 328.725 157.262 C 322.729 153.151, 300.606 139.978, 299.752 140.009 C 299.613 140.015, 293.425 142.657, 286 145.882 M 240 146.169 C 221.005 150.202, 203.816 154.550, 200.249 156.225 C 194.629 158.864, 185.588 167.738, 179.178 176.907 C 174.269 183.929, 172.951 187, 174.845 187 C 175.310 187, 176.542 186.058, 177.584 184.907 C 178.625 183.756, 180.285 182.383, 181.271 181.855 C 182.855 181.007, 182.983 181.221, 182.365 183.680 C 181.680 186.413, 181.764 186.384, 186.830 182.142 C 189.670 179.764, 192.247 177.410, 192.556 176.909 C 192.865 176.409, 193.558 176, 194.095 176 C 194.632 176, 193.943 177.662, 192.563 179.693 C 188.399 185.821, 190.688 184.818, 197.113 177.700 C 200.438 174.015, 203.600 171, 204.139 171 C 204.677 171, 204.826 171.473, 204.469 172.050 C 204.112 172.628, 205.941 171.039, 208.534 168.519 C 213.371 163.818, 217.006 161.324, 216.993 162.715 C 216.988 163.147, 214.995 166.984, 212.562 171.243 C 205.999 182.733, 205.969 183, 211.258 183 C 216.576 183, 217.620 181.979, 225.061 169.509 C 230.303 160.723, 236.972 153.039, 244 147.687 C 247.717 144.857, 247.166 144.648, 240 146.169 M 281.380 152.689 C 280.651 153.217, 280.128 159.779, 279.880 171.500 L 279.500 189.500 294.881 189.500 L 310.262 189.500 310.070 171.523 C 309.965 161.635, 309.786 153.452, 309.673 153.339 C 308.975 152.642, 282.292 152.028, 281.380 152.689 M 169.963 159.958 C 154.277 163.333, 151.791 164.206, 146.972 168.022 C 143.624 170.674, 134 183.569, 134 185.403 C 134 185.752, 136.989 182.869, 140.643 178.995 C 144.297 175.122, 147.465 172.132, 147.684 172.351 C 147.902 172.569, 147.209 174.267, 146.143 176.124 C 145.077 177.981, 143.874 180.625, 143.470 182 C 142.738 184.489, 142.744 184.491, 144.867 182.595 C 147.541 180.207, 147.603 181.569, 145 185.500 C 141.693 190.493, 142.751 190.564, 147.085 185.641 C 151.773 180.314, 154.213 179.427, 150.911 184.250 C 149.150 186.820, 149.776 186.454, 153.902 182.500 L 159.119 177.500 157.059 182.333 C 152.633 192.721, 154.888 192.480, 162.510 181.750 C 165.733 177.213, 171.966 169.787, 176.362 165.250 C 180.758 160.713, 183.937 157.059, 183.427 157.130 C 182.917 157.202, 176.858 158.474, 169.963 159.958 M 288 171.083 C 288 178.704, 288.305 181.065, 289.250 180.752 C 290.108 180.468, 290.590 177.302, 290.786 170.669 C 291.028 162.515, 290.832 161, 289.536 161 C 288.256 161, 288 162.681, 288 171.083 M 296.667 161.667 C 295.597 162.736, 295.900 179.820, 297 180.500 C 297.641 180.896, 298 177.510, 298 171.059 C 298 161.005, 297.916 160.417, 296.667 161.667 M 299 171 C 299 178.689, 299.305 181.065, 300.250 180.750 C 301.131 180.456, 301.500 177.578, 301.500 171 C 301.500 164.422, 301.131 161.544, 300.250 161.250 C 299.305 160.935, 299 163.311, 299 171 M 296.413 213.492 C 294.282 216.745, 294.736 230.589, 297.022 232.035 C 299.210 233.418, 313.369 233.231, 314.800 231.800 C 315.539 231.061, 316 227.438, 316 222.371 C 316 211.720, 315.333 211, 305.452 211 C 298.662 211, 297.910 211.207, 296.413 213.492 M 183.667 212.667 C 183.300 213.033, 183 216.183, 183 219.667 L 183 226 189 226 L 195 226 195 219.607 C 195 214.700, 194.632 213.073, 193.418 212.607 C 191.294 211.792, 184.500 211.833, 183.667 212.667 M 325.667 213.667 C 325.300 214.033, 325 216.540, 325 219.236 C 325 223.749, 325.179 224.114, 327.250 223.820 C 328.967 223.576, 329.573 222.740, 329.810 220.296 C 330.266 215.581, 327.761 211.572, 325.667 213.667 M 163.709 214.624 C 163.319 215.014, 163 217.733, 163 220.667 C 163 225.945, 163.031 226, 166.050 226 L 169.100 226 168.800 220.250 C 168.544 215.342, 168.201 214.457, 166.459 214.208 C 165.336 214.047, 164.099 214.235, 163.709 214.624 M 213 238 L 213 262 176.500 262 L 140 262 140 239.500 C 140 227.125, 139.662 217.010, 139.250 217.023 C 138.838 217.035, 135.350 217.851, 131.500 218.836 L 124.500 220.627 124.234 247.813 L 123.968 275 170.984 275 L 218 275 218 244.500 L 218 214 215.500 214 L 213 214 213 238 M 253 219.500 C 253 224.700, 253.136 225, 255.500 225 C 257.864 225, 258 224.700, 258 219.500 C 258 214.300, 257.864 214, 255.500 214 C 253.136 214, 253 214.300, 253 219.500 M 262 219.930 C 262 225.314, 262.224 226, 263.981 226 C 266.265 226, 267.313 223.009, 266.824 217.888 C 266.572 215.257, 265.997 214.429, 264.250 214.180 C 262.129 213.879, 262 214.208, 262 219.930 M 334.667 214.667 C 334.300 215.033, 334 217.283, 334 219.667 C 334 222.852, 334.397 224, 335.500 224 C 336.633 224, 337 222.778, 337 219 C 337 214.353, 336.293 213.040, 334.667 214.667 M 155.250 215.662 C 154.488 215.970, 154 218.086, 154 221.083 C 154 225.880, 154.073 226, 157 226 C 159.970 226, 160 225.944, 160 220.500 C 160 214.879, 159.203 214.067, 155.250 215.662 M 325.701 231.632 C 325.316 232.018, 325 235.197, 325 238.698 C 325 243.512, 325.376 245.207, 326.543 245.655 C 327.392 245.981, 328.243 246.079, 328.435 245.874 C 328.627 245.668, 328.945 242.361, 329.142 238.524 C 329.434 232.835, 329.214 231.492, 327.951 231.240 C 327.099 231.070, 326.087 231.246, 325.701 231.632 M 334.477 236.335 C 333.730 242.318, 334.523 246.326, 336.335 245.722 C 337.926 245.191, 337.920 231.807, 336.329 231.276 C 335.580 231.027, 334.913 232.847, 334.477 236.335 M 155.250 233.662 C 154.419 233.998, 154 236.486, 154 241.083 C 154 247.704, 154.102 248, 156.384 248 C 158.578 248, 158.822 247.487, 159.460 241.528 C 160.328 233.426, 159.530 231.935, 155.250 233.662 M 163 240.500 C 163 247.783, 163.071 248, 165.439 248 C 167.555 248, 167.965 247.417, 168.538 243.592 C 169.538 236.930, 168.381 233, 165.421 233 C 163.075 233, 163 233.232, 163 240.500 M 183 240.500 L 183 248 189 248 L 195 248 195 240.500 L 195 233 189 233 L 183 233 183 240.500 M 262 240 C 262 246.333, 262.190 247, 264 247 C 265.810 247, 266 246.333, 266 240 C 266 233.667, 265.810 233, 264 233 C 262.190 233, 262 233.667, 262 240 M 253.200 240.750 C 253.466 245.844, 253.757 246.536, 255.750 246.820 C 257.871 247.121, 258 246.792, 258 241.070 C 258 235.230, 257.903 235, 255.450 235 C 252.978 235, 252.909 235.175, 253.200 240.750 M 287.336 237.567 C 286.546 239.627, 288.229 241.233, 290.333 240.426 C 292.443 239.616, 292.493 237.403, 290.418 236.607 C 288.192 235.753, 288.010 235.809, 287.336 237.567 M 326 254.427 C 326 256.362, 326.513 257, 328.070 257 C 329.641 257, 330.062 256.461, 329.820 254.760 C 329.345 251.436, 326 251.144, 326 254.427 M 335 254.500 C 335 255.325, 335.450 256, 336 256 C 336.550 256, 337 255.325, 337 254.500 C 337 253.675, 336.550 253, 336 253 C 335.450 253, 335 253.675, 335 254.500 M 326.730 273.952 C 319.840 276.154, 316 278.506, 316 280.523 C 316 281.748, 318.171 282, 328.750 281.999 L 341.500 281.998 345.213 276.999 L 348.925 272 340.713 272.054 C 335.623 272.087, 330.306 272.809, 326.730 273.952 M 154.223 283.557 C 149.797 286.657, 152.313 295, 157.674 295 C 162.532 295, 164.730 287.730, 161 284 C 158.593 281.593, 157.160 281.499, 154.223 283.557 M 350.571 283.571 C 348.422 285.721, 348.569 291.300, 350.829 293.345 C 354.718 296.865, 360 294.321, 360 288.929 C 360 283.457, 354.061 280.082, 350.571 283.571 M 120.193 296.184 L 120.500 300.367 127.500 300.551 C 136.631 300.792, 140 301.732, 140 304.041 C 140 306.323, 143.607 307.571, 145.548 305.960 C 147.652 304.214, 147.387 299.278, 145.124 298.066 C 143.339 297.111, 122.891 292, 120.854 292 C 120.321 292, 120.023 293.883, 120.193 296.184 M 375.625 295.480 C 369.643 297.299, 364.363 299.397, 363.890 300.144 C 363.193 301.242, 363.203 303.636, 363.918 306.872 C 363.963 307.077, 364.632 306.720, 365.404 306.079 C 366.204 305.416, 367.926 305.194, 369.404 305.565 C 371.570 306.109, 372 305.875, 372 304.154 C 372 301.793, 376.056 300.623, 384.500 300.546 C 390.157 300.494, 390.963 299.836, 390.985 295.250 C 391.004 291.101, 389.976 291.117, 375.625 295.480 M 222.250 293.662 C 221.563 293.940, 221 295.029, 221 296.083 C 221 297.937, 222.188 298, 257 298 C 278.196 298, 293 297.622, 293 297.082 C 293 292.947, 293.432 292.996, 257.643 293.079 C 238.864 293.122, 222.938 293.385, 222.250 293.662 M 251.250 300.706 C 249.019 301.135, 249 301.286, 249 318.635 C 249 328.784, 249.435 336.944, 250.035 338.066 C 251.129 340.110, 256.554 340.829, 257.167 339.011 C 257.350 338.467, 257.369 329.467, 257.208 319.011 C 256.890 298.302, 257.294 299.542, 251.250 300.706 M 230 301.373 C 230 301.578, 230.886 303.748, 231.968 306.196 C 234.225 311.298, 233.475 316.355, 229.994 319.505 C 227.394 321.858, 227.431 323.375, 230.054 321.971 C 235.574 319.017, 237.569 310.085, 234.011 304.250 C 232.380 301.575, 230 299.868, 230 301.373 M 281.315 304.065 C 276.371 305.926, 275.434 313.986, 279.589 318.923 C 283.214 323.232, 284.461 322.767, 281.395 318.250 C 278.445 313.903, 278.708 309.578, 282.092 306.768 C 284.704 304.599, 284.234 302.967, 281.315 304.065 M 175.718 305.092 C 173.637 305.581, 170.712 306.618, 169.218 307.396 C 165.738 309.206, 161.446 313.779, 162.364 314.697 C 162.752 315.085, 167.641 313.904, 173.229 312.072 C 182.339 309.087, 184.221 308.796, 191.444 309.261 C 195.883 309.547, 201.857 310.685, 204.750 311.794 C 209.098 313.462, 210 313.557, 210 312.349 C 210 310.287, 200.693 306.297, 193 305.060 C 185.437 303.844, 180.980 303.852, 175.718 305.092 M 309.850 305.846 C 303.348 308.004, 298 311.489, 298 313.568 C 298 315.486, 298.478 315.421, 307.075 312.334 C 316.881 308.813, 330.425 308.616, 339.407 311.864 C 342.655 313.039, 345.479 314, 345.682 314 C 345.885 314, 345.335 312.615, 344.459 310.921 C 342.193 306.538, 337.255 304.831, 325.500 304.366 C 317.608 304.054, 314.309 304.366, 309.850 305.846 M 115.389 309.488 C 109.736 310.718, 100.346 314.680, 101.159 315.492 C 101.353 315.686, 104.434 315.125, 108.006 314.245 C 112.192 313.213, 119.208 312.619, 127.749 312.572 C 135.035 312.533, 140.998 312.211, 140.999 311.859 C 140.999 311.506, 139.191 310.493, 136.980 309.609 C 132.206 307.699, 123.831 307.652, 115.389 309.488 M 373.079 309.265 C 368.042 311.835, 369.954 312.499, 382.759 312.630 C 389.766 312.702, 398.164 313.263, 401.419 313.878 C 404.675 314.492, 407.557 314.776, 407.824 314.509 C 408.912 313.421, 398.992 310.084, 391.678 309.077 C 381.530 307.680, 376.077 307.735, 373.079 309.265 M 184 314.690 C 170.383 315.666, 162 318.285, 162 321.562 C 162 322.887, 164.989 323.018, 185.750 322.607 C 198.813 322.348, 209.853 322.105, 210.285 322.068 C 212.088 321.912, 208.593 317.731, 205.670 316.547 C 202.189 315.138, 191.058 314.184, 184 314.690 M 310.500 315.447 C 300.162 317.061, 298.218 317.724, 296.964 320.068 C 296.083 321.713, 296.269 322.005, 298.215 322.034 C 330.761 322.525, 345.204 322.479, 345.573 321.883 C 345.823 321.477, 345.007 319.957, 343.759 318.506 C 340.110 314.264, 326.244 312.989, 310.500 315.447 M 108.030 317.733 C 102.915 318.095, 100 319.271, 100 320.974 C 100 321.819, 141.696 323.054, 143.740 322.269 C 144.491 321.981, 144.969 320.790, 144.803 319.623 C 144.510 317.567, 144.009 317.498, 129 317.423 C 120.475 317.381, 111.039 317.520, 108.030 317.733 M 365.750 317.632 C 364.788 317.915, 364 319.014, 364 320.073 C 364 321.920, 364.958 322, 387 322 C 399.650 322, 410 321.605, 410 321.122 C 410 318.136, 406.432 317.545, 387.126 317.334 C 376.332 317.215, 366.712 317.350, 365.750 317.632 M 349.439 361.368 C 336.679 365.555, 329.720 369.292, 323.833 375.119 C 314.474 384.383, 311.469 395.072, 314.188 409.426 L 315.500 416.353 325 399.604 C 335.655 380.819, 341.149 374.334, 353.429 366.048 C 357.593 363.238, 361 360.278, 361 359.470 C 361 357.552, 361.138 357.529, 349.439 361.368 M 95.976 371.438 C 98.076 376.960, 102.377 384.673, 104.795 387.250 C 107.153 389.765, 110 390.919, 110 389.361 C 110 388.733, 100.339 374.169, 97.654 370.750 C 95.696 368.257, 94.892 368.587, 95.976 371.438 M 413.859 372.750 C 411.038 375.835, 402 388.546, 402 389.429 C 402 390.694, 404.013 389.860, 406.972 387.370 C 409.826 384.969, 413.672 378.624, 416.024 372.438 C 417.201 369.341, 416.942 369.379, 413.859 372.750 M 262.636 384.669 C 263.936 387.238, 265 390.176, 265 391.199 C 265 392.966, 265.140 392.956, 267.783 391.002 C 270.896 388.701, 276.697 387.456, 280.206 388.337 C 282.803 388.989, 286 393.716, 286 396.904 C 286 399.459, 286.846 399.571, 288.608 397.250 C 290.757 394.420, 290.227 392.449, 286.293 388.627 C 282.187 384.639, 270.136 380, 263.883 380 L 260.272 380 262.636 384.669 M 240.131 386.164 C 237.158 387.636, 235.320 389.383, 234.381 391.631 C 232.349 396.495, 232.710 405, 234.948 405 C 235.352 405, 236.934 402.700, 238.463 399.890 C 239.993 397.079, 243.201 392.738, 245.591 390.244 C 247.981 387.749, 249.700 385.323, 249.410 384.854 C 248.498 383.379, 244.665 383.920, 240.131 386.164 M 113.508 394.165 C 114.367 397.045, 118.230 402.984, 119.250 402.993 C 121.714 403.016, 118.632 395.644, 115.252 393.429 C 112.878 391.874, 112.830 391.894, 113.508 394.165 M 396.299 393.503 C 394.190 394.980, 391.521 401.100, 392.170 402.972 C 392.351 403.496, 394.168 401.242, 396.207 397.963 C 400.015 391.836, 400.035 390.886, 396.299 393.503 M 149.001 424.022 C 150.364 424.883, 163.889 425.482, 162.917 424.638 C 162.688 424.439, 159.126 424.006, 155.001 423.676 C 150.118 423.284, 148.025 423.405, 149.001 424.022 M 350.652 424.750 C 350.396 425.163, 352.732 425.373, 355.843 425.217 C 365.610 424.730, 366.788 424.305, 358.809 424.150 C 354.579 424.067, 350.908 424.337, 350.652 424.750 M 208.589 450.118 C 204.375 451.107, 199.286 453.897, 194.500 457.843 C 191.050 460.688, 191.365 460.595, 199.500 456.368 C 206.119 452.929, 213.704 451, 220.608 451 C 223.360 451, 224.877 450.610, 224.500 450 C 223.748 448.784, 213.969 448.856, 208.589 450.118 M 291.750 449.631 C 288.117 450.702, 290.225 451.625, 296.301 451.625 C 301.340 451.625, 303.892 452.256, 309.051 454.779 C 312.598 456.514, 316.625 458.712, 318 459.664 C 320.202 461.188, 320.142 461.002, 317.500 458.104 C 313.182 453.368, 305.666 449.838, 299.063 449.446 C 296.003 449.264, 292.712 449.347, 291.750 449.631" stroke="none" fill="black" fill-rule="evenodd"/>
</svg>